<?xml version="1.0" standalone="no"?>
<!DOCTYPE svg PUBLIC "-//W3C//DTD SVG 20010904//EN"
 "http://www.w3.org/TR/2001/REC-SVG-20010904/DTD/svg10.dtd">
<svg version="1.0" xmlns="http://www.w3.org/2000/svg"
 width="3936.000000pt" height="3936.000000pt" viewBox="0 0 3936.000000 3936.000000"
 preserveAspectRatio="xMidYMid meet">
<metadata>
Created by potrace 1.14, written by Peter Selinger 2001-2017
</metadata>
<g transform="translate(0.000000,3936.000000) scale(0.100000,-0.100000)"
fill="#000000" stroke="none">
<path d="M33749 22876 c-2 -2 -26 -7 -54 -10 -200 -23 -368 -115 -505 -275
-42 -50 -94 -174 -116 -280 -7 -36 -8 -211 -1 -256 16 -104 21 -121 59 -202
86 -187 272 -326 491 -369 10 -2 26 -5 35 -8 9 -3 51 -8 92 -12 331 -27 579
43 751 215 80 80 111 132 165 276 21 58 42 305 25 305 -3 0 -5 15 -5 32 1 18
-3 39 -9 46 -5 6 -7 12 -3 12 10 0 -45 142 -72 185 -66 104 -179 204 -292 257
-48 23 -68 30 -115 45 -80 24 -163 35 -291 38 -83 2 -153 3 -155 1z"/>
<path d="M658 22605 c-2 -2 -25 -6 -53 -9 -27 -3 -57 -7 -65 -9 -8 -2 -29 -7
-47 -11 -18 -4 -55 -18 -83 -32 -27 -13 -52 -24 -55 -24 -13 0 -113 -82 -156
-126 -79 -84 -146 -199 -164 -285 -4 -19 -10 -38 -13 -44 -3 -5 -8 -19 -11
-30 -2 -11 -6 -1077 -7 -2370 -4 -2529 -5 -2432 46 -2567 42 -108 85 -174 170
-259 84 -84 227 -160 334 -177 64 -10 263 -10 311 -1 28 6 60 12 73 15 36 7
133 52 177 82 57 39 122 100 160 153 32 43 83 135 84 152 0 4 8 21 16 37 9 17
13 30 9 30 -4 0 -1 7 6 15 7 8 10 15 7 15 -3 0 -2 14 3 31 21 71 23 232 23
1512 l1 1339 35 -39 c20 -21 49 -57 66 -78 28 -37 37 -48 75 -95 8 -10 29 -35
45 -56 17 -21 53 -66 80 -99 28 -34 61 -77 75 -95 14 -18 30 -38 35 -44 6 -6
41 -49 78 -96 38 -47 74 -92 80 -100 7 -8 39 -49 72 -90 33 -41 65 -80 70 -87
18 -22 30 -37 130 -163 55 -69 102 -127 105 -130 3 -3 41 -50 85 -105 43 -55
84 -105 90 -112 17 -20 29 -36 60 -78 17 -22 38 -46 47 -53 10 -7 18 -17 18
-23 0 -5 8 -17 18 -27 9 -10 31 -36 48 -57 18 -22 71 -89 119 -150 143 -179
149 -187 180 -224 17 -20 46 -56 65 -81 19 -25 39 -50 45 -57 5 -6 21 -26 35
-44 14 -18 30 -37 35 -43 6 -6 44 -54 85 -106 41 -52 85 -106 96 -120 12 -14
45 -54 73 -90 29 -36 59 -73 67 -83 9 -11 68 -85 133 -165 64 -81 124 -156
133 -167 9 -11 58 -71 108 -134 51 -63 106 -126 122 -140 75 -65 195 -123 303
-147 52 -12 278 -13 335 -3 136 26 288 110 371 204 43 49 89 113 89 124 0 5 4
11 9 13 8 3 64 151 75 199 3 14 9 57 12 95 9 88 9 4590 0 4664 -11 96 -14 107
-36 172 -72 203 -234 368 -425 433 -142 48 -355 51 -487 8 -26 -8 -50 -14 -54
-13 -4 1 -10 -2 -13 -7 -3 -4 -24 -17 -46 -28 -124 -62 -240 -185 -294 -314
-25 -59 -51 -141 -45 -141 2 0 -2 -12 -8 -27 -9 -21 -12 -351 -13 -1289 -1
-694 -5 -1266 -9 -1272 -3 -6 -3 -13 1 -15 6 -4 8 -171 4 -242 -1 -11 -18 9
-147 170 -52 66 -103 129 -112 140 -9 11 -35 43 -56 70 -22 28 -43 52 -48 53
-4 2 -8 8 -8 13 0 5 -8 17 -17 27 -19 20 -26 28 -83 101 -19 25 -42 52 -50 61
-8 9 -24 29 -35 44 -11 16 -34 44 -52 62 -17 19 -29 34 -26 34 3 0 -10 17 -28
38 -19 22 -41 47 -49 58 -8 10 -36 46 -63 79 -26 33 -53 67 -60 75 -8 8 -69
85 -137 170 -68 85 -129 162 -136 170 -53 61 -124 151 -124 156 0 4 -8 14 -18
23 -9 9 -53 61 -97 116 -43 55 -84 105 -90 112 -5 7 -15 18 -20 25 -51 65
-341 426 -349 435 -6 7 -15 18 -21 25 -26 34 -131 164 -140 174 -5 6 -21 26
-35 44 -24 32 -142 178 -180 224 -10 11 -59 73 -110 136 -50 63 -99 124 -108
135 -10 11 -40 49 -67 85 -28 36 -55 70 -61 76 -6 7 -21 25 -35 40 -35 42
-158 132 -189 139 -3 1 -18 7 -35 14 -46 20 -115 39 -165 46 -46 7 -188 14
-192 10z"/>
<path d="M14337 22604 c-1 -1 -22 -4 -47 -7 -166 -18 -334 -102 -445 -223 -36
-38 -118 -164 -121 -184 0 -3 -9 -32 -19 -65 -23 -73 -23 -74 -32 -155 -8 -81
-8 -4615 0 -4690 8 -69 31 -164 51 -212 9 -21 16 -41 17 -45 0 -5 6 -15 14
-23 7 -8 20 -28 28 -45 9 -16 30 -46 47 -65 17 -19 35 -39 38 -45 11 -16 90
-75 101 -75 6 0 11 -4 11 -8 0 -8 60 -36 73 -33 4 0 7 -4 7 -9 0 -6 9 -10 20
-10 11 0 20 -5 20 -12 0 -6 3 -9 6 -5 3 3 24 -1 46 -9 58 -20 115 -27 263 -30
188 -5 323 27 457 107 60 35 188 151 188 170 0 4 6 14 13 21 25 26 77 145 99
228 20 80 21 109 23 506 1 231 5 426 9 432 4 7 4 12 -1 12 -4 0 -7 107 -5 237
1 131 2 249 1 263 -1 14 -1 131 0 260 1 129 1 240 1 245 0 6 -1 57 -3 113 -1
57 1 106 4 108 3 2 116 -110 252 -249 135 -139 327 -335 426 -437 100 -102
284 -291 410 -420 127 -129 283 -289 347 -355 841 -865 990 -1014 1059 -1067
84 -64 209 -124 280 -135 17 -2 44 -8 60 -12 36 -9 163 -7 224 3 64 11 163 49
227 87 54 33 163 131 213 193 41 51 99 176 116 248 16 70 22 238 10 258 -4 6
-8 21 -10 33 -7 49 -16 75 -46 137 -40 82 -77 128 -205 260 -56 58 -147 151
-201 206 -98 102 -541 557 -748 769 -60 62 -211 217 -335 344 -124 127 -289
297 -368 378 l-142 146 172 169 c95 93 325 319 511 501 1197 1173 1127 1100
1200 1242 82 156 82 374 1 542 -37 79 -125 191 -186 238 -21 17 -49 39 -63 50
-13 11 -39 28 -57 37 -41 20 -111 53 -118 54 -3 0 -32 6 -65 14 -185 42 -369
-1 -534 -124 -50 -37 -69 -57 -938 -932 -1383 -1395 -1491 -1503 -1495 -1491
-7 23 -2 943 6 955 4 7 4 12 -1 12 -6 0 -8 268 -3 485 0 6 -1 118 -4 250 -3
203 -11 291 -30 350 -1 6 -7 24 -11 40 -13 50 -77 161 -125 218 -107 128 -266
213 -455 242 -38 6 -234 13 -238 9z"/>
<path d="M26508 20895 c-2 -1 -48 -6 -103 -9 -97 -7 -150 -12 -150 -16 0 -1
-11 -3 -25 -4 -41 -5 -131 -25 -205 -48 -38 -12 -72 -22 -75 -23 -3 -1 -14 -5
-25 -10 -61 -24 -80 -32 -85 -32 -10 1 -166 -87 -225 -126 -114 -76 -240 -191
-310 -282 -16 -21 -41 -52 -55 -67 l-25 -29 0 33 c1 55 -32 193 -59 245 -34
67 -109 160 -167 205 -41 32 -135 86 -164 95 -166 47 -252 56 -400 42 -104
-11 -130 -17 -219 -51 -199 -77 -363 -249 -402 -420 -1 -5 -2 -9 -4 -10 -1 -2
-3 -10 -5 -18 -2 -8 -7 -26 -10 -40 -7 -28 -8 -3056 -1 -3110 2 -19 7 -46 10
-60 3 -14 8 -36 11 -50 2 -13 23 -62 46 -108 59 -117 148 -205 270 -266 50
-25 99 -46 108 -46 10 0 21 -3 25 -7 3 -4 14 -8 24 -10 9 -2 35 -6 57 -11 53
-10 317 -9 380 2 28 4 54 12 59 17 6 5 18 9 28 9 25 0 138 52 190 88 24 16 65
52 91 79 48 50 117 153 117 177 0 6 4 16 9 21 5 6 17 37 27 70 16 55 18 137
20 965 3 856 6 1021 18 1080 3 14 8 36 11 49 13 69 62 185 108 255 6 11 39 47
72 81 54 54 87 80 165 127 30 18 148 58 187 63 53 7 96 16 106 22 6 3 8 2 4
-3 -3 -5 28 -9 71 -8 166 2 294 -60 385 -187 22 -31 54 -95 61 -124 2 -5 6
-17 9 -25 3 -8 8 -27 11 -42 4 -16 7 -31 8 -35 22 -86 25 -250 26 -1123 1
-525 3 -973 6 -995 36 -262 191 -452 431 -530 11 -3 20 -6 20 -5 0 1 12 -3 26
-8 14 -6 43 -14 65 -18 50 -10 328 -11 374 -2 19 4 47 10 62 13 15 3 38 9 50
14 13 5 26 9 31 10 4 0 31 13 60 27 181 92 286 222 336 420 20 77 20 104 17
1174 -2 602 -6 1115 -9 1140 -4 25 -9 68 -12 95 -3 28 -10 75 -15 105 -5 30
-12 71 -15 90 -8 54 -13 74 -46 190 -12 42 -14 50 -21 70 -3 8 -14 38 -24 65
-57 161 -178 351 -301 471 -61 59 -247 193 -276 198 -7 1 -32 12 -57 23 -88
40 -242 87 -325 98 -96 13 -130 16 -230 21 -60 2 -118 6 -127 8 -9 2 -18 3
-20 1z"/>
<path d="M20999 20886 c-2 -2 -31 -6 -64 -10 -33 -3 -73 -9 -90 -12 -16 -3
-43 -7 -60 -9 -42 -6 -110 -22 -175 -40 -30 -9 -59 -17 -65 -19 -28 -7 -62
-18 -80 -26 -11 -5 -51 -21 -90 -36 -38 -15 -113 -50 -165 -77 -52 -28 -107
-56 -122 -64 -16 -8 -28 -19 -28 -24 0 -5 -7 -9 -15 -9 -8 0 -23 -9 -32 -20
-10 -11 -21 -20 -26 -20 -9 0 -103 -71 -154 -116 -17 -16 -40 -36 -50 -45 -21
-18 -139 -144 -168 -180 -139 -169 -268 -401 -340 -609 -35 -101 -79 -266 -90
-340 -3 -20 -8 -47 -11 -60 -2 -14 -7 -45 -9 -70 -2 -25 -7 -65 -11 -90 -4
-25 -7 -130 -7 -235 -1 -169 3 -248 17 -350 3 -17 7 -51 10 -76 3 -25 7 -52
10 -60 3 -7 8 -30 11 -49 3 -19 10 -53 15 -75 6 -22 13 -48 15 -59 30 -130
148 -418 190 -466 8 -8 15 -19 16 -25 1 -5 14 -28 28 -50 14 -22 30 -47 36
-56 59 -95 124 -170 246 -289 124 -121 134 -130 149 -130 5 0 10 -4 10 -8 0
-7 90 -72 150 -107 10 -6 25 -17 34 -24 9 -7 16 -10 16 -6 0 5 8 1 18 -7 20
-18 219 -118 234 -118 5 0 26 -7 46 -16 21 -9 46 -20 57 -25 90 -39 360 -100
550 -125 187 -24 597 -24 724 1 10 2 42 6 71 10 29 4 62 9 74 11 12 3 32 7 46
10 99 18 143 28 200 44 36 9 67 18 70 18 7 1 13 3 185 57 83 26 155 51 160 55
6 4 26 13 45 20 46 17 234 103 240 110 3 3 23 18 45 34 90 65 167 167 201 265
24 68 26 87 26 191 1 106 -4 132 -37 240 -22 69 -107 183 -170 226 -31 21
-105 53 -140 60 -32 6 -138 6 -165 -1 -14 -3 -38 -8 -55 -10 -41 -6 -192 -56
-355 -117 -74 -27 -139 -51 -145 -53 -5 -1 -23 -7 -39 -14 -16 -6 -36 -13 -45
-15 -9 -2 -23 -6 -31 -9 -39 -14 -120 -37 -170 -46 -200 -37 -516 -32 -627 10
-15 6 -30 10 -33 10 -14 -1 -57 14 -101 35 -27 13 -53 24 -58 24 -5 0 -11 7
-15 15 -3 8 -12 15 -20 15 -14 0 -146 127 -146 141 0 4 -6 14 -12 21 -42 45
-118 244 -134 348 -3 19 -9 50 -14 68 -6 22 -5 32 3 33 7 0 525 1 1153 2 851
2 1144 5 1155 14 8 6 16 11 19 11 19 1 60 25 87 51 59 57 94 129 109 231 5 32
5 241 -1 299 -10 113 -16 169 -20 191 -3 14 -8 45 -11 70 -3 24 -7 47 -9 51
-2 3 -7 21 -10 39 -15 82 -67 255 -106 345 -7 17 -13 32 -13 35 -4 18 -86 177
-126 245 -96 161 -208 293 -370 435 -88 76 -326 221 -426 258 -16 6 -54 20
-84 32 -30 12 -62 23 -70 25 -122 34 -212 56 -240 60 -40 5 -103 15 -140 22
-30 5 -476 14 -481 9z m431 -1017 c128 -34 223 -102 302 -217 70 -101 117
-254 134 -429 l6 -61 -652 0 -652 0 6 51 c9 85 24 154 52 230 14 40 28 80 31
90 3 9 9 17 14 17 5 0 9 9 9 20 0 11 3 20 8 20 4 0 16 15 25 33 25 46 98 120
160 163 89 61 175 91 287 100 41 4 76 7 77 8 6 5 153 -14 193 -25z"/>
<path d="M37138 20885 c-3 -3 -34 -8 -70 -10 -36 -3 -76 -8 -89 -11 -13 -3
-35 -7 -49 -8 -49 -7 -204 -47 -290 -75 -213 -72 -438 -195 -610 -335 -89 -71
-241 -225 -290 -293 -19 -26 -38 -51 -42 -54 -21 -15 -125 -189 -182 -304 -87
-177 -163 -409 -191 -585 -3 -19 -7 -46 -10 -60 -3 -14 -7 -56 -11 -95 -3 -38
-7 -86 -9 -105 -6 -47 -5 -357 0 -395 2 -16 7 -61 10 -99 4 -38 8 -77 10 -85
1 -9 6 -36 10 -61 28 -177 99 -399 185 -575 58 -120 194 -335 211 -335 5 0 9
-5 9 -10 0 -19 194 -220 260 -270 18 -14 39 -31 46 -37 7 -7 17 -13 22 -13 6
0 12 -4 14 -9 6 -16 203 -137 299 -183 52 -26 133 -60 180 -78 46 -17 95 -36
109 -42 14 -5 36 -12 50 -14 14 -3 45 -11 70 -19 52 -17 70 -20 225 -49 44 -8
103 -17 130 -20 28 -3 79 -8 115 -12 85 -10 436 -10 525 0 80 8 127 14 170 21
118 18 115 18 165 29 14 3 57 13 95 22 39 9 77 18 85 19 46 5 349 107 440 148
24 10 49 20 55 21 13 2 168 77 175 85 3 4 23 18 45 32 99 65 198 204 221 314
4 18 16 146 16 170 0 96 -55 268 -105 332 -46 59 -113 115 -168 141 -61 29
-69 31 -169 28 -58 -2 -118 -6 -135 -10 -62 -15 -245 -75 -290 -96 -11 -4 -60
-23 -110 -40 -49 -18 -99 -36 -110 -41 -29 -12 -215 -68 -245 -73 -14 -3 -25
-5 -25 -6 0 -3 -40 -8 -130 -16 -140 -13 -400 -6 -445 13 -8 3 -18 6 -22 5 -3
-1 -30 6 -60 14 -88 26 -190 81 -250 134 -54 48 -148 175 -148 199 0 6 -4 11
-8 11 -5 0 -9 6 -10 13 -1 10 -50 152 -53 152 0 0 -2 8 -4 19 -2 10 -8 39 -14
65 -20 87 -22 111 -9 112 7 0 522 1 1143 3 622 2 1137 5 1145 7 69 20 169 98
178 139 2 8 7 17 11 20 4 3 16 34 26 70 15 50 20 94 19 195 -1 138 -10 291
-18 315 -3 8 -8 35 -10 60 -5 48 -12 89 -22 130 -4 14 -8 34 -10 46 -1 11 -8
40 -15 65 -7 24 -13 49 -15 54 -7 30 -46 139 -70 199 -40 100 -153 318 -174
336 -3 3 -20 28 -37 55 -18 28 -46 65 -63 83 -16 18 -30 36 -30 39 0 7 -162
168 -200 198 -14 11 -43 34 -65 50 -22 17 -46 36 -53 43 -7 6 -20 12 -28 12
-8 0 -14 3 -14 8 0 12 -133 87 -240 135 -140 62 -310 113 -455 136 -38 6 -88
14 -110 17 -49 8 -480 15 -487 9z m339 -999 c73 -8 145 -25 160 -38 7 -6 13
-8 13 -4 0 17 121 -71 170 -124 76 -81 145 -222 162 -330 1 -3 5 -21 10 -40 4
-19 10 -57 13 -85 4 -27 8 -62 10 -77 l3 -27 -654 1 -654 0 6 41 c33 242 94
385 218 511 98 100 217 157 356 172 36 3 66 7 67 8 3 2 65 -2 120 -8z"/>
<path d="M6785 20868 c-33 -5 -72 -10 -86 -12 -66 -9 -259 -88 -259 -107 0 -5
-6 -9 -13 -9 -20 0 -124 -107 -163 -168 -40 -61 -83 -183 -92 -257 -9 -72 -8
-2049 1 -2175 10 -135 18 -208 31 -275 2 -11 9 -49 16 -85 22 -122 77 -290
131 -405 18 -38 33 -72 34 -75 1 -7 30 -53 83 -132 50 -74 155 -188 217 -233
22 -17 48 -37 58 -46 9 -9 30 -22 45 -30 15 -8 29 -17 32 -20 8 -11 132 -69
147 -69 7 0 13 -5 13 -12 0 -6 3 -8 7 -5 3 4 11 3 17 -1 18 -14 168 -59 256
-77 59 -12 114 -20 215 -32 79 -8 398 -8 455 1 151 24 260 53 358 97 34 15 62
25 62 21 0 -4 4 -2 8 3 4 6 27 21 52 34 138 75 272 186 368 305 31 39 60 73
63 76 3 3 11 15 18 28 16 31 27 28 29 -11 5 -72 36 -181 63 -218 10 -15 19
-31 19 -36 0 -28 119 -147 191 -190 64 -38 172 -78 249 -92 70 -12 257 -12
335 0 32 6 91 21 130 35 38 14 76 25 83 26 6 1 12 4 12 8 0 4 21 18 47 31 82
42 243 219 243 267 0 7 5 12 11 12 5 0 8 3 6 8 -3 4 0 18 6 32 16 40 22 65 34
150 10 65 9 3029 -1 3080 -32 172 -74 258 -176 361 -162 162 -396 228 -695
195 -196 -22 -370 -116 -480 -260 -30 -40 -83 -145 -89 -179 -2 -15 -7 -31
-10 -36 -16 -25 -18 -138 -21 -986 -2 -500 -6 -937 -8 -971 -6 -74 -47 -244
-59 -244 -4 0 -8 -7 -8 -16 0 -18 -41 -94 -78 -144 -36 -50 -153 -160 -169
-160 -7 0 -13 -4 -13 -9 0 -17 -148 -74 -230 -88 -99 -17 -302 0 -337 28 -7 6
-13 9 -13 5 0 -16 -99 50 -140 94 -77 81 -121 185 -137 320 -2 19 -6 490 -7
1045 -2 556 -6 1030 -10 1055 -7 49 -27 118 -47 165 -7 17 -13 33 -13 37 -1 4
-7 13 -13 19 -7 7 -13 19 -13 26 0 7 -4 13 -10 13 -5 0 -10 5 -10 11 0 6 -6
16 -12 23 -7 7 -27 29 -45 49 -64 73 -202 153 -308 178 -27 6 -57 14 -65 17
-46 14 -234 20 -315 10z"/>
<path d="M33817 20874 c-1 -1 -24 -4 -52 -7 -90 -11 -112 -16 -171 -35 -84
-28 -110 -41 -185 -89 -150 -97 -237 -240 -263 -433 -5 -37 -9 -168 -6 -185 1
-5 2 -14 1 -18 -2 -10 -2 -929 0 -942 1 -5 1 -14 0 -18 -2 -10 -2 -929 0 -942
1 -5 1 -14 0 -19 -4 -19 0 -895 4 -951 12 -184 107 -358 246 -451 69 -46 188
-97 259 -111 14 -2 42 -8 63 -13 43 -9 307 -11 322 -2 5 3 16 7 25 7 74 7 280
85 280 106 0 5 7 9 15 9 8 0 15 5 15 10 0 6 5 10 11 10 21 0 142 134 159 175
4 11 17 41 28 65 24 55 36 99 46 185 7 56 9 493 2 503 -3 5 -3 12 0 15 4 3 6
35 6 71 0 35 -2 69 -6 74 -3 5 -3 12 0 15 8 8 8 132 0 145 -3 5 -3 12 0 15 4
3 6 35 6 71 0 35 -2 69 -6 74 -3 5 -3 12 0 15 4 3 6 35 6 71 0 35 -2 69 -6 74
-3 5 -3 12 0 15 4 3 6 35 6 71 0 35 -2 69 -6 74 -3 5 -3 12 0 15 4 3 6 35 6
71 0 35 -2 69 -6 74 -3 5 -3 12 0 15 8 8 8 132 0 145 -3 5 -3 11 0 14 5 6 5
1375 -1 1423 -9 80 -16 114 -32 160 -81 226 -291 382 -568 421 -39 5 -193 12
-198 8z"/>
<path d="M29507 20793 c-1 -1 -94 -3 -207 -4 -124 -1 -224 -7 -253 -15 -26 -7
-50 -13 -52 -13 -3 -1 -6 -1 -7 -2 -2 0 -14 -2 -28 -5 -51 -9 -168 -75 -216
-122 -60 -60 -65 -66 -91 -122 -39 -86 -47 -130 -46 -265 0 -110 4 -139 25
-205 54 -172 222 -295 448 -327 25 -3 375 -7 779 -9 403 -1 735 -4 737 -6 2
-2 -25 -34 -59 -70 -34 -36 -107 -114 -162 -173 -167 -180 -334 -359 -415
-445 -25 -26 -90 -96 -145 -155 -55 -59 -118 -127 -140 -150 -22 -23 -66 -71
-99 -106 -32 -35 -113 -122 -180 -193 -66 -71 -132 -142 -146 -157 -14 -15
-52 -56 -85 -91 -49 -51 -270 -288 -310 -332 -37 -39 -95 -121 -95 -132 0 -8
-3 -14 -8 -14 -4 0 -13 -12 -19 -27 -7 -16 -22 -50 -33 -76 -12 -26 -23 -58
-26 -70 -2 -12 -7 -35 -11 -52 -12 -52 -7 -247 7 -295 8 -25 14 -47 15 -50 3
-17 43 -92 69 -130 100 -150 267 -252 447 -275 58 -8 2772 -8 2854 -1 94 9
207 35 250 59 11 6 25 12 32 13 26 5 126 88 161 137 37 50 75 139 88 209 19
103 0 289 -39 376 -63 142 -216 243 -422 278 -22 4 -397 8 -833 10 -437 1
-796 4 -798 7 -5 4 26 37 296 326 113 121 259 277 285 305 51 55 247 266 297
318 26 27 86 93 135 145 48 52 106 114 128 137 22 24 87 93 145 156 58 62 123
132 145 155 22 23 86 92 141 151 56 60 117 125 135 145 74 79 129 151 129 169
0 5 4 10 8 10 10 0 68 125 81 177 70 264 -12 514 -219 673 -51 40 -78 57 -100
66 -8 3 -24 10 -35 14 -51 22 -126 40 -186 46 -55 5 -2367 13 -2372 7z"/>
</g>
</svg>
